<svg xmlns="http://www.w3.org/2000/svg" xmlns:xlink="http://www.w3.org/1999/xlink" viewBox="0 0 403 404.07"><defs><style>.cls-1{fill:#222532;}.cls-2{fill:#3d4254;}.cls-3{mask:url(#mask);}.cls-4{font-size:74.61px;fill:#999;font-family:SimSun;}.cls-5{fill:none;stroke-miterlimit:10;stroke-width:2px;stroke:url(#Namnlös_övertoning_11);}.cls-6{fill:#98a0a1;}.cls-7{filter:url(#luminosity-invert);}</style><filter id="luminosity-invert" filterUnits="userSpaceOnUse" color-interpolation-filters="sRGB"><feColorMatrix values="-1 0 0 0 1 0 -1 0 0 1 0 0 -1 0 1 0 0 0 1 0"/></filter><mask id="mask" x="-63.51" y="213.78" width="496.73" height="209.42" maskUnits="userSpaceOnUse"><g class="cls-7"><g transform="translate(-20 -7.35)"><path class="cls-1" d="M424.1,258.86c-.39-9.75-3.44-19.89-10.48-26.68S398,221.13,388.31,221.13h-396A36,36,0,0,0-33,232.18c-6.21,6.54-10.87,17.27-10.49,26.68.4,9.75,3.45,19.89,10.49,26.68s15.62,11,25.31,11h396a36,36,0,0,0,25.31-11C419.83,279,424.48,268.27,424.1,258.86Z"/><path class="cls-2" d="M453.2,331.43c-.4-9.75-3.44-19.89-10.48-26.68s-15.63-11.05-25.31-11.05H40.56a36,36,0,0,0-25.3,11.05C9.05,311.3,4.39,322,4.77,331.43c.4,9.76,3.44,19.9,10.49,26.69l.83.77a40.44,40.44,0,0,0-7.77,23.42c0,9.26,3.9,20.33,10.48,26.68,6.84,6.59,15.78,11.48,25.31,11.05S62.56,416.22,69.42,409q8.88-9.35,17.74-18.7a39.88,39.88,0,0,0,10.06-21.12h33.12a28.55,28.55,0,0,0-4.85,9.51,35.64,35.64,0,0,0,0,28.21,28.73,28.73,0,0,0,7.57,12.58c6.84,6.59,15.78,11.48,25.31,11s18.45-3.82,25.31-11L193.62,409a28.67,28.67,0,0,0,7.57-12.58,35.82,35.82,0,0,0,.43-27.24H417.41a36,36,0,0,0,25.31-11.05C448.92,351.57,453.58,340.85,453.2,331.43Z"/></g></g></mask><linearGradient id="Namnlös_övertoning_11" y1="220.92" x2="378.26" y2="220.92" gradientUnits="userSpaceOnUse"><stop offset="0" stop-color="#fff" stop-opacity="0"/><stop offset="0.53"/><stop offset="1" stop-color="#f2f2f2" stop-opacity="0"/></linearGradient></defs><title>Jemma SVG</title><g id="Layer_4" data-name="Layer 4"><path class="cls-1" d="M164.88,89.87a8.35,8.35,0,0,0-3.06-2.8c-.59,1.23-1,2.6-1.63,3.87-2.76,6-8.06,10.25-12.38,15.11a117.4,117.4,0,0,0-13.43,17.87,4.5,4.5,0,0,0-.88,2.74c.13,1,1.22,1.85,2.08,1.39a2.27,2.27,0,0,0,.91-1.26c3.61-8.68,9.54-15,17.32-20.26C158.12,103.61,168.44,95.8,164.88,89.87Z" transform="translate(-20 -7.35)"/><path class="cls-1" d="M294.27,70.85c-10-18.86-25.07-35.36-44.12-45.74C226,11.94,194.41,9.16,167.94,17.6a21.81,21.81,0,0,0-2.28.27,41.93,41.93,0,0,0-11.82-8.94c-1.24,3-.21,9.54-1.8,11.37-3.2,3.7-11.13,3.65-14.47.77Q129.71,14.29,122,7.37c-.46-.41-2.46,4.89-2.54,5.41a13.53,13.53,0,0,0,.71,6.08c2.22,7.06,11.39,10.54,8.38,18.39-2.27,6-8.24,10.21-10,16.32-.92,3.2-.21,6.92-.29,10.3-.42,19-8,39.89-17.28,56.36a10.18,10.18,0,0,0-1.69,4.39,8.93,8.93,0,0,0,.29,2.29c.83,3.69,2.23,7.5,5.24,9.87,4,3.17,10.38,2.76,14.22-.62a12.8,12.8,0,0,0,3.23-13.93A14.68,14.68,0,0,1,112,130.6c-1.3-2.55.66-5.43,2.12-7.89a30.68,30.68,0,0,0,2.38-5.22l.33-.62c1.17-2.15,2.32-4.3,3.47-6.46,4.62-7.94,8.84-16.13,12.82-24.39.6-1.1,1.2-2.21,1.75-3.33l.82,3.13c-.45-1.7,4.27-6.8,5.34-8,2.11-2.44,4.9-5.42,7.77-6.73-.62.28.17,9.7.12,10.85a30.72,30.72,0,0,1-2.27,10.53c-.77,1.9-1.26,3.91-2.05,5.8.48-1.17,4.16-3.18,5.18-4.41a32.9,32.9,0,0,0,4-6.31,99.4,99.4,0,0,0,5.93-15.21A18.9,18.9,0,0,1,155.77,71c-1.08-.65-1.93-2.27-2.54-3.3,1.06,1.8,7-1.29,7.79-2.25-.86-.63-9.47-4.12-9.79-2.29,1.08-6.27,7.4-3,11-4.09,1.78-.54,1.25,0,1.11-2.27-.2-3.59-2.63-6.79-5.07-9.25-3-3-11.12-9.23-1.21-10.09a24,24,0,0,1,17.32,5.47c-2-1.69-3.56-4.52-5.21-6.61-2.62-3.32,3.22-7.81.75-11.52,20.13-7.52,46.16-5.36,66,1.83,20.94,7.58,39.2,22.6,49.44,42.05,5.11,9.71,8.93,21.18,18.62,26.57A121.7,121.7,0,0,0,294.27,70.85Z" transform="translate(-20 -7.35)"/><path class="cls-1" d="M267.29,199.12c-1.14-4.3-4.1-8.48-6.94-11.39-1.73-1.77-4.05-3.22-6.51-3-5.94.46-3.86,9.14-6.48,12.8-1.47,2.05-4.23,3.38-6.58,2.47a6.78,6.78,0,0,1-3.25-3.16c-3.26-5.74-.49-11.37-1.3-17.41-1.54.41-2.2,1.71-3.42,2.67-5.12,4-7.77-4.22-7.95-7.69A49.36,49.36,0,0,1,228,154.91c3.08-8.39,10.8-18.63,3.35-27.38-2-2.31-8.87-3.2-9.5-5.25-.78-2.5,3.71-7.58,5.28-9.13,4.59-4.52,12.65-8.33,19.14-8.76a67.4,67.4,0,0,1,8.76,0c-1.6-4-5.82-6.35-9.73-7.59-2.62-.83-10.43,0-11.91-2.07a4.3,4.3,0,0,1-.56-1.84c-3-19.44-22.57-32.34-37.2-43.26a112.73,112.73,0,0,1,17.17,29.72,37.47,37.47,0,0,1,3,12.53A16,16,0,0,1,212.14,103a27.25,27.25,0,0,0-.91-13.5,130.17,130.17,0,0,0-18.3-35.82c-.39-.55-.8-1.62-1.42-1.9-1.39-.62.69,5.29.82,5.95,2.26,11-.86,23.18-7.29,32.25a31.53,31.53,0,0,0-3.38,5.23c-2.74,6.15,2.94,12.92,5.14,18.38,1.2,3,2,6.26,1.41,9.42-.73,3.75-4.11,7.55-8.24,6.45.73,2.49,3.13,3.12,4.81,4.75,2,2,2.26,3.83,2.66,6.58.23,1.49,4.49,14.44,5.94,14.27-2.2.25-4.4.42-6.62.51a5.53,5.53,0,0,1-2.33-.25c-2.05-.84-4.58-6.58-6.25-8.44-2.32-2.58-4.93-5.14-5.73-8.65-.68-3,.76-6.75,3.58-7.29a12.46,12.46,0,0,0-6.5.11,9.79,9.79,0,0,0-2.69,1.29,8.87,8.87,0,0,0-3.68,8.77c2.49,11.82,19,15.56,24.11,26.25,2.27,4.71,2.78,10.23,5.69,14.65a9.88,9.88,0,0,0,6.52,4.58c2.88.4,5.73-.93,8.64-1a4.93,4.93,0,0,1,2.85.65c1.72,1.11,1.16,3.7,1.84,5.43a11.22,11.22,0,0,0,5.07,5.38c3.39,1.85,7.26,2.34,10.88,3.6,9.62,3.33,26.2,19.82,36.18,9.15C267.91,206.63,268.28,202.83,267.29,199.12ZM216.37,175.4a2.87,2.87,0,0,1-2.06,1.59,6.18,6.18,0,0,1-3.38-.69,27.52,27.52,0,0,1-3.17-1.47,19.4,19.4,0,0,1-5.49-4.37,35.4,35.4,0,0,1-3.12-4.6,6.65,6.65,0,0,1-1.32-3.91,2.34,2.34,0,0,0,0-.53,1.16,1.16,0,0,0-.2-.42c-.5-.79-1.34-1.45-1.61-2.38a1.86,1.86,0,0,1-.09-.47,2.19,2.19,0,0,1,2.08.51,27.87,27.87,0,0,0,2.49,2.12,46.63,46.63,0,0,0,6.9,4.24,31,31,0,0,0,7.38,3.22,1.43,1.43,0,0,1,1.28,1.31c.2,1.09.41,2.19.53,3.3A4.88,4.88,0,0,1,216.37,175.4Zm5.49-32.12a13.57,13.57,0,0,1-1.46,2,22.42,22.42,0,0,0-2.66,3.93l0,.07a22,22,0,0,0-2,6.12c-.2,1.08-.34,2.16-.45,3.25a23.71,23.71,0,0,0-.21,3.1,34.12,34.12,0,0,1-5.85-2.05.63.63,0,0,1-.31-.22c-.3-.44.16-1.54.28-2a25,25,0,0,1,8.87-13.08,14.29,14.29,0,0,1,2.08-1.4c.44-.23.89-.43,1.34-.62a.47.47,0,0,1,.21-.06c.18,0,.32.21.32.41A1.23,1.23,0,0,1,221.86,143.28Z" transform="translate(-20 -7.35)"/><path class="cls-1" d="M290.39,86.54c-5.75-10.64-12.27-21.08-20.17-30.32-7.39-8.64-16.29-16-26.82-20.68a93.09,93.09,0,0,0-12.06-4.33c-2-.58-4.07-1.1-6.13-1.58-1.74-.4-3.9-1.24-5.7-1.16a5.86,5.86,0,0,0-1.41.71c1.84.3,3.68.6,5.49,1,7.22,1.78,14.83,5.66,20,11,4.06,4.2,5,9.79,3.83,15.35a6.4,6.4,0,0,0-.22,1.5c0,1.41,1.47,2.2,2.48,3A26.41,26.41,0,0,0,253,63.17a54.46,54.46,0,0,0,7.27,3.15c5.64,2.08,11.08,4.24,16.1,7.55,1.18.77,2.32,1.59,3.44,2.44a58.83,58.83,0,0,1,6,5.34,30.65,30.65,0,0,1,5.11,6C290.8,87.3,290.6,86.92,290.39,86.54Z" transform="translate(-20 -7.35)"/><path class="cls-1" d="M266.48,166.82c-8.87,1.3-18.73,1.31-27.37-1.77a10.73,10.73,0,0,0,3.73,3.59c4.2,2.44,9.37,2.61,14.11,3a69.73,69.73,0,0,0,18.58-1c4.49-.89,9.83-2.14,13-5.63a24,24,0,0,0,4.39-7.68l-.53.06C284.85,162.71,275.35,165.53,266.48,166.82Z" transform="translate(-20 -7.35)"/><g class="cls-3"><path class="cls-1" d="M72.25,256.11a6.58,6.58,0,0,0-1.36-4.53c-.91-1-2.5-1.51-4.77-1.51H48.89v-4.93h57.63v4.93H89.29a6.45,6.45,0,0,0-4.43,1.51,5.73,5.73,0,0,0-1.7,4.53V363.37q0,16.62-9.54,26.06t-23.85,9.44q-10.22,0-15.67-4.53t-5.45-10.58q0-4.53,2.38-6.8a7.32,7.32,0,0,1,5.11-2.26,6.54,6.54,0,0,1,5.45,2.64,10.13,10.13,0,0,1,2,6.42,9.53,9.53,0,0,1-.34,2.65,7.86,7.86,0,0,1-1.71,2.64,8.35,8.35,0,0,0,4.09,3.4,17.93,17.93,0,0,0,6.82,1.13,17.9,17.9,0,0,0,14.3-6.42q5.45-6.42,5.45-23.79Z" transform="translate(-20 -7.35)"/><path class="cls-1" d="M113.52,248.43v-3.29H168l6.12,18.61-2.78,1.09q-4.45-8.2-9.46-12.31a17.07,17.07,0,0,0-11.12-4.1h-16.1a5.08,5.08,0,0,0-3.47,1.15,4.28,4.28,0,0,0-1.34,3.44v35.63H145.4c3.56,0,6.16-.95,7.76-2.87s2.41-4.79,2.41-8.62v-3.28h3.9v33.65h-3.9v-2.4c0-4.2-.8-7.46-2.41-9.75s-4.2-3.44-7.76-3.44H129.88v43a4.25,4.25,0,0,0,1.34,3.44,5.08,5.08,0,0,0,3.47,1.15h14.37s10-1.84,13.83-5.07,6.78-8.26,9-15.1l2.72,1.14-6,22.31H113.52v-3.28h3c1.8-.23,3.07-.61,3.8-1.37s1-3.42,1-3.42v-82a4.44,4.44,0,0,0-1.11-3.28c-.75-.73-2-1.09-3.89-1.09Z" transform="translate(-20 -7.35)"/><path class="cls-1" d="M239.67,335a4.18,4.18,0,0,0,1.35,3.4,5.16,5.16,0,0,0,3.5,1.14h2.16v3.28H223.32v-3.28h2.78c1.85,0,3.15-.36,3.89-1.09a4.4,4.4,0,0,0,1.12-3.28V260.74H230l-18.38,82.09h-3.5l-16.73-80.45h-.81V335a4.14,4.14,0,0,0,1.36,3.4,5.17,5.17,0,0,0,3.51,1.14h1.36v3.28H180.49v-3.28h1.38c1.79,0,3-.37,3.77-1.14a4.75,4.75,0,0,0,1.08-3.4V253.79a4.81,4.81,0,0,0-1.08-3.41c-.72-.75-2-1.13-3.77-1.13h-2.16v-4.11H195.5l15.79,76.35h1.09l16.88-76.35h17.42v4.11h-2.16a5.26,5.26,0,0,0-3.5,1.13,4.23,4.23,0,0,0-1.35,3.41Z" transform="translate(-20 -7.35)"/><path class="cls-1" d="M309,335a4.18,4.18,0,0,0,1.35,3.4,5.17,5.17,0,0,0,3.51,1.14H316v3.28H292.62v-3.28h2.78c1.85,0,3.15-.36,3.9-1.09a4.44,4.44,0,0,0,1.11-3.28V260.74h-1.08L281,342.83h-3.36l-16.73-80.45h-.94V335a4.14,4.14,0,0,0,1.35,3.4,5.19,5.19,0,0,0,3.51,1.14h1.37v3.28H249.79v-3.28h1.8s3.07-.61,3.8-1.37a7.05,7.05,0,0,0,1.41-3.42V253.3a7.14,7.14,0,0,0-1.41-3.42c-.73-.76-2-1.14-3.8-.63H249v-4.11H264.8l15.79,76.35h1.09l16.88-76.35H316v4.11h-2.15a5.27,5.27,0,0,0-3.51,1.13,4.23,4.23,0,0,0-1.35,3.41Z" transform="translate(-20 -7.35)"/><path class="cls-1" d="M361.68,306.71H337.42l-4.85,21.52a25.44,25.44,0,0,0-.54,4.53,13.38,13.38,0,0,0,.81,4.53c.54,1.51,2.06,2.26,4.58,2.26h1.92v3.28H319.1v-3.28h1.39a12.21,12.21,0,0,0,3.8-1.66c1.08-.94,1.8-2.56,2.17-4.84l21.16-87.16,8.13-2.85,20.62,90a10.58,10.58,0,0,0,2.71,4.84,7.2,7.2,0,0,0,3.8,1.66h1.63v3.28H361.14v-3.28h2.16c2.16,0,3.41-.47,3.78-1.42a7.34,7.34,0,0,0,.54-2.54,13.52,13.52,0,0,0-.54-4Zm-11.35-50.89h-.54l-11.48,47.61h22.95Z" transform="translate(-20 -7.35)"/></g><text class="cls-4" transform="translate(128.84 393.58) scale(0.93 1)">STABLES</text><line class="cls-5" y1="220.92" x2="378.26" y2="220.92"/><path class="cls-6" d="M423,383.94a0,0,0,1,0,0,.07S423,383.94,423,383.94Z" transform="translate(-20 -7.35)"/></g><g id="Layer_7" data-name="Layer 7"><path class="cls-6" d="M49.36,398.63s0,.08,0,.08A0,0,0,0,0,49.36,398.63Z" transform="translate(-20 -7.35)"/></g></svg>